<svg width="126" height="41" viewBox="0 0 126 41" fill="none" xmlns="http://www.w3.org/2000/svg">
<path d="M6.728 30.404C6.176 30.404 5.612 30.368 5.036 30.296C3.524 30.104 2.408 29.66 1.688 28.964C0.992 28.244 0.644 27.476 0.644 26.66C0.644 25.772 1.028 24.968 1.796 24.248C2.588 23.528 3.704 23.168 5.144 23.168C6.104 23.168 7.148 23.36 8.276 23.744C8.756 23.888 9.344 24.14 10.04 24.5C10.76 24.836 11.468 25.184 12.164 25.544C12.86 25.904 13.4 26.192 13.784 26.408C14.84 25.376 15.812 24.188 16.7 22.844C17.612 21.476 18.476 20.024 19.292 18.488C20.108 16.928 20.936 15.356 21.776 13.772C22.616 12.188 23.492 10.652 24.404 9.164C25.34 7.652 26.372 6.272 27.5 5.024C26.252 4.256 24.872 3.668 23.36 3.26C21.872 2.828 20.336 2.612 18.752 2.612C18.152 2.612 17.54 2.648 16.916 2.72C16.316 2.792 15.704 2.888 15.08 3.008C12.848 3.488 10.964 4.256 9.428 5.312C7.892 6.344 6.728 7.484 5.936 8.732C5.168 9.956 4.784 11.12 4.784 12.224C4.784 13.04 5 13.76 5.432 14.384C5.864 15.008 6.524 15.452 7.412 15.716C8.06 15.908 8.624 16.004 9.104 16.004C9.896 16.004 10.58 15.848 11.156 15.536C11.756 15.2 12.26 14.792 12.668 14.312C13.076 13.832 13.376 13.364 13.568 12.908C13.784 12.452 13.904 12.08 13.928 11.792C13.928 11.624 14.036 11.54 14.252 11.54C14.588 11.54 14.72 11.744 14.648 12.152C14.528 13.112 14.168 13.952 13.568 14.672C12.968 15.368 12.248 15.92 11.408 16.328C10.568 16.712 9.704 16.904 8.816 16.904C8.24 16.904 7.64 16.808 7.016 16.616C5.912 16.232 4.976 15.572 4.208 14.636C3.464 13.676 3.092 12.548 3.092 11.252C3.092 9.98 3.512 8.708 4.352 7.436C5.216 6.14 6.584 4.976 8.456 3.944C10.328 2.912 12.776 2.18 15.8 1.748C16.808 1.604 17.828 1.532 18.86 1.532C20.564 1.532 22.232 1.736 23.864 2.144C25.52 2.552 27.08 3.14 28.544 3.908L29.444 2.864C29.66 2.672 29.96 2.432 30.344 2.144C30.752 1.856 31.16 1.58 31.568 1.316C31.976 1.052 32.276 0.883999 32.468 0.811998C32.78 0.691998 33.032 0.631998 33.224 0.631998C33.368 0.631998 33.44 0.667999 33.44 0.739999C33.44 0.907998 33.248 1.112 32.864 1.352C32.624 1.52 32.408 1.712 32.216 1.928C32.024 2.12 31.88 2.276 31.784 2.396C31.424 2.9 31.136 3.308 30.92 3.62C30.728 3.932 30.464 4.34 30.128 4.844C32.336 6.308 34.136 8.204 35.528 10.532C36.92 12.836 37.616 15.476 37.616 18.452C37.616 19.076 37.58 19.712 37.508 20.36C37.364 21.896 36.944 23.288 36.248 24.536C35.552 25.784 34.64 26.84 33.512 27.704C32.408 28.568 31.172 29.228 29.804 29.684C28.46 30.164 27.044 30.404 25.556 30.404C25.004 30.404 24.452 30.368 23.9 30.296C21.548 30.008 19.604 29.624 18.068 29.144C16.556 28.688 15.224 28.208 14.072 27.704C11.888 29.504 9.44 30.404 6.728 30.404ZM24.944 29.324C26.864 29.324 28.556 28.916 30.02 28.1C31.508 27.26 32.708 26.168 33.62 24.824C34.532 23.48 35.072 22.028 35.24 20.468C35.312 19.892 35.348 19.316 35.348 18.74C35.348 16.124 34.784 13.748 33.656 11.612C32.552 9.452 31.088 7.64 29.264 6.176C28.208 7.832 27.116 9.584 25.988 11.432C24.884 13.28 23.768 15.116 22.64 16.94C21.512 18.74 20.408 20.408 19.328 21.944C18.272 23.48 17.276 24.752 16.34 25.76C16.172 25.904 15.956 26.12 15.692 26.408C15.452 26.672 15.2 26.888 14.936 27.056C16.064 27.56 17.348 28.016 18.788 28.424C20.228 28.832 21.92 29.12 23.864 29.288C24.08 29.312 24.26 29.324 24.404 29.324C24.572 29.324 24.752 29.324 24.944 29.324ZM5.936 29.288C7.256 29.36 8.492 29.204 9.644 28.82C10.796 28.412 11.864 27.848 12.848 27.128C11.984 26.72 11.108 26.3 10.22 25.868C9.332 25.412 8.396 25.004 7.412 24.644C6.764 24.428 6.188 24.32 5.684 24.32C4.796 24.32 4.124 24.572 3.668 25.076C3.212 25.556 2.984 26.096 2.984 26.696C2.984 27.344 3.236 27.932 3.74 28.46C4.244 28.964 4.976 29.24 5.936 29.288ZM43.2511 14.384C42.8911 14.384 42.5911 14.264 42.3511 14.024C42.1351 13.76 42.0271 13.448 42.0271 13.088C42.0271 12.632 42.2071 12.236 42.5671 11.9C42.9271 11.564 43.3231 11.396 43.7551 11.396C44.1391 11.396 44.4511 11.516 44.6911 11.756C44.9311 11.996 45.0511 12.284 45.0511 12.62C45.0511 13.076 44.8711 13.484 44.5111 13.844C44.1511 14.204 43.7311 14.384 43.2511 14.384ZM40.3351 29C39.4471 29 38.8231 28.748 38.4631 28.244C38.1031 27.716 37.9231 27.116 37.9231 26.444C37.9231 26.084 37.9591 25.724 38.0311 25.364C38.1271 24.98 38.2351 24.632 38.3551 24.32L40.7671 18.164C40.8391 17.972 40.8751 17.804 40.8751 17.66C40.8751 17.42 40.8151 17.216 40.6951 17.048C40.5751 16.856 40.4911 16.724 40.4431 16.652L42.4231 16.58C42.7831 16.556 43.0351 16.604 43.1791 16.724C43.3471 16.82 43.4311 16.94 43.4311 17.084C43.4311 17.228 43.3471 17.492 43.1791 17.876L40.1911 24.896C40.1911 24.896 40.1191 25.052 39.9751 25.364C39.8551 25.652 39.7831 25.844 39.7591 25.94C39.6871 26.3 39.6391 26.528 39.6151 26.624C39.5911 26.72 39.5791 26.78 39.5791 26.804C39.5791 26.828 39.5791 26.924 39.5791 27.092C39.5791 27.404 39.6511 27.668 39.7951 27.884C39.9631 28.1 40.2391 28.208 40.6231 28.208C40.8631 28.208 41.1391 28.136 41.4511 27.992C41.7631 27.848 41.9911 27.704 42.1351 27.56C42.7351 26.936 43.3231 26.12 43.8991 25.112C44.4991 24.08 45.0511 23.06 45.5551 22.052C45.6511 21.812 45.7711 21.692 45.9151 21.692C46.0351 21.692 46.0951 21.776 46.0951 21.944C46.0951 22.04 46.0591 22.184 45.9871 22.376C45.7471 22.88 45.4471 23.504 45.0871 24.248C44.7271 24.992 44.2951 25.736 43.7911 26.48C43.3111 27.2 42.7831 27.8 42.2071 28.28C41.6311 28.76 41.0071 29 40.3351 29ZM43.0992 40.484C40.8192 40.484 39.6792 39.548 39.6792 37.676C39.6792 36.788 39.9912 35.996 40.6152 35.3C41.2392 34.604 41.9832 34.004 42.8472 33.5C44.0473 32.78 45.2113 32.204 46.3393 31.772C47.4673 31.34 48.5353 30.956 49.5433 30.62C50.5753 30.308 51.5473 29.96 52.4593 29.576C52.8913 28.304 53.1793 26.972 53.3233 25.58C53.3953 24.86 53.4313 24.236 53.4313 23.708C53.4313 23.156 53.3953 22.796 53.3233 22.628C53.0593 23.132 52.7113 23.744 52.2793 24.464C51.8473 25.184 51.3553 25.892 50.8033 26.588C50.2513 27.26 49.6513 27.824 49.0033 28.28C48.3793 28.736 47.7313 28.964 47.0593 28.964C46.8193 28.964 46.5913 28.928 46.3753 28.856C45.7033 28.568 45.2113 28.16 44.8993 27.632C44.6113 27.104 44.4673 26.504 44.4673 25.832C44.4673 24.752 44.7793 23.588 45.4033 22.34C46.0273 21.092 46.7713 19.952 47.6353 18.92C48.3313 18.08 49.1473 17.408 50.0833 16.904C51.0193 16.4 51.9673 16.148 52.9273 16.148C54.0313 16.148 55.0633 16.52 56.0233 17.264C56.3833 17.552 56.5633 17.864 56.5633 18.2C56.5633 18.56 56.4193 18.74 56.1313 18.74C55.8913 18.74 55.7233 18.584 55.6273 18.272C55.2913 17.384 54.7513 16.94 54.0073 16.94C53.4073 16.94 52.7233 17.204 51.9553 17.732C51.1873 18.236 50.4673 18.872 49.7953 19.64C49.2193 20.288 48.6553 21.032 48.1033 21.872C47.5753 22.712 47.1313 23.54 46.7713 24.356C46.4353 25.172 46.2673 25.88 46.2673 26.48C46.2673 26.888 46.3633 27.236 46.5553 27.524C46.7473 27.812 47.0473 27.956 47.4553 27.956C48.0073 27.956 48.5833 27.692 49.1833 27.164C49.8073 26.636 50.3953 25.988 50.9473 25.22C51.5233 24.452 52.0153 23.672 52.4233 22.88C52.8553 22.088 53.1553 21.428 53.3233 20.9C53.4913 20.348 53.7193 20.012 54.0073 19.892C54.2953 19.748 54.5833 19.676 54.8713 19.676C55.1593 19.676 55.3993 19.604 55.5913 19.46C55.6873 19.988 55.7473 20.528 55.7713 21.08C55.8193 21.608 55.8433 22.148 55.8433 22.7C55.8433 24.548 55.6033 26.408 55.1233 28.28C55.5553 27.944 55.9993 27.584 56.4553 27.2C56.9353 26.792 57.3433 26.36 57.6793 25.904C58.2793 25.088 58.7233 24.344 59.0113 23.672C59.3233 22.976 59.5633 22.436 59.7313 22.052C59.8753 21.812 60.0313 21.692 60.1993 21.692C60.3433 21.692 60.4153 21.764 60.4153 21.908C60.4153 22.028 60.3673 22.172 60.2713 22.34C59.6713 23.612 59.1193 24.704 58.6153 25.616C58.1113 26.504 57.5593 27.26 56.9593 27.884C56.3593 28.484 55.6153 29 54.7273 29.432C54.3433 30.584 53.7673 31.796 52.9993 33.068C52.2313 34.34 51.3313 35.54 50.2993 36.668C49.2673 37.796 48.1393 38.708 46.9153 39.404C45.6913 40.124 44.4193 40.484 43.0992 40.484ZM42.2352 39.764C42.7632 39.764 43.3152 39.644 43.8913 39.404C44.4913 39.188 45.0553 38.924 45.5833 38.612C46.1113 38.3 46.5193 38.036 46.8073 37.82C47.3593 37.388 47.9233 36.848 48.4993 36.2C49.0753 35.552 49.5793 34.928 50.0113 34.328C50.4193 33.752 50.8033 33.14 51.1633 32.492C51.5473 31.868 51.8713 31.244 52.1353 30.62C51.9433 30.692 51.7033 30.776 51.4153 30.872C51.1513 30.968 50.9593 31.04 50.8393 31.088C50.0473 31.352 49.1713 31.652 48.2113 31.988C47.2753 32.348 46.3393 32.732 45.4033 33.14C44.4673 33.572 43.6152 34.04 42.8472 34.544C42.1752 35 41.6232 35.6 41.1912 36.344C40.7352 37.088 40.5072 37.736 40.5072 38.288C40.5072 38.696 40.6512 39.044 40.9392 39.332C41.2032 39.62 41.6352 39.764 42.2352 39.764ZM63.7472 14.384C63.3872 14.384 63.0872 14.264 62.8472 14.024C62.6312 13.76 62.5232 13.448 62.5232 13.088C62.5232 12.632 62.7032 12.236 63.0632 11.9C63.4232 11.564 63.8192 11.396 64.2512 11.396C64.6352 11.396 64.9472 11.516 65.1872 11.756C65.4272 11.996 65.5472 12.284 65.5472 12.62C65.5472 13.076 65.3672 13.484 65.0072 13.844C64.6472 14.204 64.2272 14.384 63.7472 14.384ZM60.8312 29C59.9432 29 59.3192 28.748 58.9592 28.244C58.5992 27.716 58.4192 27.116 58.4192 26.444C58.4192 26.084 58.4552 25.724 58.5272 25.364C58.6232 24.98 58.7312 24.632 58.8512 24.32L61.2632 18.164C61.3352 17.972 61.3712 17.804 61.3712 17.66C61.3712 17.42 61.3112 17.216 61.1912 17.048C61.0712 16.856 60.9872 16.724 60.9392 16.652L62.9192 16.58C63.2792 16.556 63.5312 16.604 63.6752 16.724C63.8432 16.82 63.9272 16.94 63.9272 17.084C63.9272 17.228 63.8432 17.492 63.6752 17.876L60.6872 24.896C60.6872 24.896 60.6152 25.052 60.4712 25.364C60.3512 25.652 60.2792 25.844 60.2552 25.94C60.1832 26.3 60.1352 26.528 60.1112 26.624C60.0872 26.72 60.0752 26.78 60.0752 26.804C60.0752 26.828 60.0752 26.924 60.0752 27.092C60.0752 27.404 60.1472 27.668 60.2912 27.884C60.4592 28.1 60.7352 28.208 61.1192 28.208C61.3592 28.208 61.6352 28.136 61.9472 27.992C62.2592 27.848 62.4872 27.704 62.6312 27.56C63.2312 26.936 63.8192 26.12 64.3952 25.112C64.9952 24.08 65.5472 23.06 66.0512 22.052C66.1472 21.812 66.2672 21.692 66.4112 21.692C66.5312 21.692 66.5912 21.776 66.5912 21.944C66.5912 22.04 66.5552 22.184 66.4832 22.376C66.2432 22.88 65.9432 23.504 65.5832 24.248C65.2232 24.992 64.7912 25.736 64.2872 26.48C63.8072 27.2 63.2792 27.8 62.7032 28.28C62.1272 28.76 61.5032 29 60.8312 29ZM68.6353 29.036C67.6033 29.036 66.8353 28.772 66.3313 28.244C65.8273 27.716 65.5753 27.056 65.5753 26.264C65.5753 25.88 65.6233 25.508 65.7193 25.148C65.8633 24.596 66.0673 23.984 66.3313 23.312C66.6193 22.616 66.9433 21.908 67.3033 21.188C66.4633 22.82 65.6953 24.2 64.9993 25.328C64.3273 26.432 63.8113 27.152 63.4513 27.488C63.3793 27.56 63.3073 27.596 63.2353 27.596C63.1153 27.596 63.0553 27.536 63.0553 27.416C63.0553 27.32 63.0913 27.224 63.1633 27.128C63.6673 26.456 64.2433 25.532 64.8913 24.356C65.5633 23.18 66.2713 21.872 67.0153 20.432C67.7593 18.968 68.5153 17.492 69.2833 16.004C70.0513 14.516 70.7953 13.112 71.5153 11.792C72.2593 10.472 72.9313 9.356 73.5313 8.444C73.9633 7.796 74.3713 7.34 74.7553 7.076C75.1393 6.788 75.5353 6.644 75.9433 6.644H76.1233C76.3393 6.644 76.5793 6.68 76.8433 6.752C77.1313 6.824 77.3953 6.836 77.6353 6.788C77.3233 7.124 76.8433 7.724 76.1953 8.588C75.5713 9.428 74.8633 10.424 74.0713 11.576C73.3033 12.704 72.5233 13.904 71.7313 15.176C70.9633 16.424 70.2793 17.648 69.6793 18.848C69.1033 20 68.5873 21.236 68.1313 22.556C67.6993 23.852 67.4833 24.992 67.4833 25.976C67.4833 26.552 67.5793 27.032 67.7713 27.416C67.9633 27.8 68.2873 28.04 68.7433 28.136C69.5113 28.304 70.5433 27.62 71.8393 26.084C72.3433 25.484 72.8473 24.776 73.3513 23.96C73.8553 23.12 74.2513 22.34 74.5393 21.62C74.9473 20.66 75.1513 19.784 75.1513 18.992C75.1513 18.392 74.9953 17.912 74.6833 17.552C74.3953 17.192 73.9033 17.048 73.2073 17.12H73.0633C72.6313 17.12 72.4153 17 72.4153 16.76C72.4153 16.664 72.4753 16.568 72.5953 16.472C72.7393 16.376 72.9313 16.328 73.1713 16.328C73.2433 16.328 73.3153 16.34 73.3873 16.364C73.4833 16.364 73.5793 16.376 73.6753 16.4C74.7553 16.568 75.5233 17.012 75.9793 17.732C76.4593 18.428 76.6993 19.232 76.6993 20.144C76.6993 20.336 76.6873 20.552 76.6633 20.792C76.6393 21.008 76.6033 21.248 76.5553 21.512C76.3633 22.496 75.9913 23.504 75.4393 24.536C74.8873 25.544 74.2033 26.432 73.3873 27.2C72.5953 27.968 71.7073 28.484 70.7233 28.748C70.3153 28.844 69.9313 28.916 69.5713 28.964C69.2353 29.012 68.9233 29.036 68.6353 29.036ZM80.2518 29C79.3398 29 78.6678 28.7 78.2358 28.1C77.8038 27.476 77.5878 26.72 77.5878 25.832C77.5878 24.752 77.8398 23.624 78.3438 22.448C78.8238 21.344 79.4358 20.336 80.1798 19.424C80.9238 18.512 81.7278 17.78 82.5918 17.228C83.4558 16.652 84.2958 16.364 85.1118 16.364C86.0238 16.364 86.6958 16.664 87.1278 17.264C87.5598 17.864 87.7758 18.62 87.7758 19.532C87.7758 20.636 87.5238 21.764 87.0198 22.916C86.7318 23.564 86.3238 24.284 85.7958 25.076C85.2678 25.844 84.6678 26.552 83.9958 27.2C84.1398 27.464 84.3438 27.692 84.6078 27.884C84.8718 28.052 85.2318 28.136 85.6878 28.136C86.2638 28.136 86.8038 27.896 87.3078 27.416C87.8358 26.936 88.3158 26.36 88.7478 25.688C89.1798 24.992 89.5638 24.296 89.8998 23.6C90.2358 22.904 90.5118 22.34 90.7278 21.908C90.7998 21.764 90.9198 21.692 91.0878 21.692C91.1838 21.692 91.2558 21.74 91.3038 21.836C91.3518 21.908 91.3398 22.028 91.2678 22.196C91.1238 22.556 90.8838 23.096 90.5478 23.816C90.2118 24.512 89.8038 25.244 89.3238 26.012C88.8438 26.756 88.2918 27.392 87.6678 27.92C87.0438 28.448 86.3478 28.712 85.5798 28.712C85.0518 28.712 84.5958 28.628 84.2118 28.46C83.8278 28.268 83.5158 28.04 83.2758 27.776C82.7718 28.16 82.2678 28.46 81.7638 28.676C81.2598 28.892 80.7558 29 80.2518 29ZM80.7918 28.208C81.4398 28.208 82.1358 27.896 82.8798 27.272C82.6878 26.984 82.5438 26.684 82.4478 26.372C82.3518 26.06 82.3038 25.772 82.3038 25.508C82.3038 25.076 82.3998 24.704 82.5918 24.392C82.8078 24.08 83.1318 23.924 83.5638 23.924C83.8758 23.924 84.1278 24.044 84.3198 24.284C84.5358 24.5 84.6438 24.752 84.6438 25.04C84.6438 25.112 84.6318 25.184 84.6078 25.256C84.6078 25.304 84.5958 25.364 84.5718 25.436C84.9798 24.884 85.3638 24.236 85.7238 23.492C86.5158 21.788 86.9118 20.384 86.9118 19.28C86.9118 18.728 86.8038 18.296 86.5878 17.984C86.3718 17.672 86.0478 17.516 85.6158 17.516C85.1118 17.516 84.5598 17.732 83.9598 18.164C83.3838 18.596 82.8198 19.172 82.2678 19.892C81.7398 20.612 81.2718 21.416 80.8638 22.304C80.4798 23.12 80.1678 23.912 79.9278 24.68C79.7118 25.424 79.6038 26.072 79.6038 26.624C79.6038 27.104 79.6998 27.488 79.8918 27.776C80.0838 28.064 80.3838 28.208 80.7918 28.208ZM92.3104 29C91.3984 29 90.7264 28.7 90.2944 28.1C89.8624 27.476 89.6464 26.72 89.6464 25.832C89.6464 24.752 89.8984 23.624 90.4024 22.448C90.8824 21.344 91.4944 20.336 92.2384 19.424C92.9824 18.512 93.7864 17.78 94.6504 17.228C95.5144 16.652 96.3544 16.364 97.1704 16.364C98.0824 16.364 98.7544 16.664 99.1864 17.264C99.6184 17.864 99.8344 18.62 99.8344 19.532C99.8344 20.636 99.5824 21.764 99.0784 22.916C98.7904 23.564 98.3824 24.284 97.8544 25.076C97.3264 25.844 96.7264 26.552 96.0544 27.2C96.1984 27.464 96.4024 27.692 96.6664 27.884C96.9304 28.052 97.2904 28.136 97.7464 28.136C98.3224 28.136 98.8624 27.896 99.3664 27.416C99.8944 26.936 100.374 26.36 100.806 25.688C101.238 24.992 101.622 24.296 101.958 23.6C102.294 22.904 102.57 22.34 102.786 21.908C102.858 21.764 102.978 21.692 103.146 21.692C103.242 21.692 103.314 21.74 103.362 21.836C103.41 21.908 103.398 22.028 103.326 22.196C103.182 22.556 102.942 23.096 102.606 23.816C102.27 24.512 101.862 25.244 101.382 26.012C100.902 26.756 100.35 27.392 99.7264 27.92C99.1024 28.448 98.4064 28.712 97.6384 28.712C97.1104 28.712 96.6544 28.628 96.2704 28.46C95.8864 28.268 95.5744 28.04 95.3344 27.776C94.8304 28.16 94.3264 28.46 93.8224 28.676C93.3184 28.892 92.8144 29 92.3104 29ZM92.8504 28.208C93.4984 28.208 94.1944 27.896 94.9384 27.272C94.7464 26.984 94.6024 26.684 94.5064 26.372C94.4104 26.06 94.3624 25.772 94.3624 25.508C94.3624 25.076 94.4584 24.704 94.6504 24.392C94.8664 24.08 95.1904 23.924 95.6224 23.924C95.9344 23.924 96.1864 24.044 96.3784 24.284C96.5944 24.5 96.7024 24.752 96.7024 25.04C96.7024 25.112 96.6904 25.184 96.6664 25.256C96.6664 25.304 96.6544 25.364 96.6304 25.436C97.0384 24.884 97.4224 24.236 97.7824 23.492C98.5744 21.788 98.9704 20.384 98.9704 19.28C98.9704 18.728 98.8624 18.296 98.6464 17.984C98.4304 17.672 98.1064 17.516 97.6744 17.516C97.1704 17.516 96.6184 17.732 96.0184 18.164C95.4424 18.596 94.8784 19.172 94.3264 19.892C93.7984 20.612 93.3304 21.416 92.9224 22.304C92.5384 23.12 92.2264 23.912 91.9864 24.68C91.7704 25.424 91.6624 26.072 91.6624 26.624C91.6624 27.104 91.7584 27.488 91.9504 27.776C92.1424 28.064 92.4424 28.208 92.8504 28.208ZM109.157 29.252C108.509 29.18 107.921 28.88 107.393 28.352C106.889 27.8 106.541 27.068 106.349 26.156C106.325 25.988 106.301 25.844 106.277 25.724C106.277 25.58 106.277 25.424 106.277 25.256C106.277 24.296 106.493 23.528 106.925 22.952C107.357 22.352 107.753 22.04 108.113 22.016C108.497 22.04 108.965 21.956 109.517 21.764C110.069 21.548 110.549 21.26 110.957 20.9C111.653 20.348 112.001 19.784 112.001 19.208C112.001 18.608 111.653 18.308 110.957 18.308C110.573 18.308 110.081 18.44 109.481 18.704C108.905 18.968 108.233 19.424 107.465 20.072C106.505 20.888 105.509 21.98 104.477 23.348C104.333 23.66 104.165 24.128 103.973 24.752C103.781 25.352 103.613 25.976 103.469 26.624C103.349 27.272 103.289 27.824 103.289 28.28C103.289 28.64 103.349 28.88 103.469 29H101.201C100.937 29 100.805 28.892 100.805 28.676C100.805 28.604 100.817 28.544 100.841 28.496C100.865 28.448 100.889 28.352 100.913 28.208C101.249 26.96 101.693 25.784 102.245 24.68C102.797 23.576 103.349 22.412 103.901 21.188C103.061 22.748 102.293 24.128 101.597 25.328C100.925 26.504 100.409 27.26 100.049 27.596C100.001 27.644 99.941 27.668 99.869 27.668C99.773 27.668 99.713 27.608 99.689 27.488C99.641 27.368 99.665 27.248 99.761 27.128C100.265 26.456 100.841 25.532 101.489 24.356C102.161 23.18 102.869 21.872 103.613 20.432C104.357 18.968 105.113 17.492 105.881 16.004C106.649 14.516 107.393 13.112 108.113 11.792C108.857 10.472 109.529 9.356 110.129 8.444C110.561 7.796 110.969 7.34 111.353 7.076C111.737 6.788 112.133 6.644 112.541 6.644H112.721C112.937 6.644 113.177 6.68 113.441 6.752C113.729 6.824 113.993 6.836 114.233 6.788C113.777 7.148 113.225 7.736 112.577 8.552C111.929 9.368 111.245 10.34 110.525 11.468C109.805 12.596 109.073 13.796 108.329 15.068C107.609 16.34 106.925 17.6 106.277 18.848C106.037 19.328 105.809 19.832 105.593 20.36C105.377 20.888 105.173 21.416 104.981 21.944C105.485 21.32 106.061 20.672 106.709 20C107.357 19.328 108.029 18.716 108.725 18.164C109.445 17.588 110.153 17.168 110.849 16.904C111.641 16.616 112.301 16.472 112.829 16.472C113.381 16.472 113.777 16.604 114.017 16.868C114.281 17.132 114.413 17.468 114.413 17.876C114.413 18.332 114.233 18.884 113.873 19.532C113.513 20.156 113.021 20.696 112.397 21.152C111.869 21.512 111.317 21.824 110.741 22.088C110.165 22.352 109.481 22.52 108.689 22.592C108.545 22.928 108.437 23.276 108.365 23.636C108.317 23.972 108.293 24.308 108.293 24.644C108.293 25.58 108.509 26.408 108.941 27.128C109.373 27.824 109.937 28.172 110.633 28.172C110.969 28.172 111.329 28.076 111.713 27.884C112.121 27.692 112.541 27.368 112.973 26.912C113.453 26.432 113.933 25.748 114.413 24.86C114.917 23.972 115.421 23 115.925 21.944C116.021 21.752 116.129 21.656 116.249 21.656C116.393 21.656 116.465 21.752 116.465 21.944C116.465 22.04 116.429 22.16 116.357 22.304C115.661 23.912 114.989 25.196 114.341 26.156C113.717 27.092 113.105 27.8 112.505 28.28C111.929 28.736 111.365 29.024 110.813 29.144C110.261 29.264 109.709 29.3 109.157 29.252ZM116.582 29.144C115.406 29.144 114.566 28.844 114.062 28.244C113.582 27.62 113.342 26.972 113.342 26.3C113.342 25.748 113.474 25.244 113.738 24.788C114.026 24.332 114.362 24.092 114.746 24.068C115.226 23.132 115.742 22.112 116.294 21.008C116.87 19.904 117.398 18.836 117.878 17.804C118.214 17.108 118.634 16.436 119.138 15.788C119.666 15.14 120.242 14.768 120.866 14.672H121.226C121.418 14.672 121.586 14.684 121.73 14.708C121.898 14.732 122.066 14.78 122.234 14.852C122.498 14.972 122.63 15.152 122.63 15.392C122.63 15.536 122.546 15.608 122.378 15.608C122.306 15.608 122.21 15.572 122.09 15.5C121.802 15.38 121.55 15.32 121.334 15.32C121.19 15.32 121.058 15.356 120.938 15.428C120.482 15.668 120.158 16.004 119.966 16.436C119.798 16.868 119.714 17.324 119.714 17.804C119.714 18.188 119.75 18.584 119.822 18.992C119.918 19.376 120.026 19.724 120.146 20.036C120.41 20.708 120.686 21.368 120.974 22.016C121.286 22.664 121.442 23.36 121.442 24.104C121.442 24.824 121.202 25.592 120.722 26.408C120.242 27.2 119.63 27.836 118.886 28.316L119.138 28.352C119.258 28.376 119.342 28.388 119.39 28.388C119.438 28.388 119.474 28.388 119.498 28.388C120.05 28.388 120.566 28.232 121.046 27.92C121.55 27.584 121.994 27.176 122.378 26.696C122.762 26.216 123.194 25.544 123.674 24.68C124.178 23.816 124.658 22.904 125.114 21.944C125.186 21.824 125.27 21.764 125.366 21.764C125.486 21.764 125.57 21.812 125.618 21.908C125.69 21.98 125.702 22.076 125.654 22.196C125.342 22.868 124.982 23.6 124.574 24.392C124.19 25.16 123.746 25.904 123.242 26.624C122.738 27.32 122.15 27.896 121.478 28.352C120.83 28.784 120.098 29 119.282 29C119.09 29 118.886 28.988 118.67 28.964C118.454 28.94 118.238 28.892 118.022 28.82C117.782 28.916 117.53 28.988 117.266 29.036C117.026 29.108 116.798 29.144 116.582 29.144ZM117.662 28.064C118.07 27.728 118.43 27.236 118.742 26.588C119.078 25.94 119.246 25.088 119.246 24.032C119.246 23.096 119.15 22.1 118.958 21.044C118.766 19.988 118.67 19.052 118.67 18.236C118.67 18.068 118.67 17.924 118.67 17.804C118.694 17.66 118.718 17.528 118.742 17.408C118.43 18.056 118.07 18.812 117.662 19.676C117.254 20.516 116.846 21.332 116.438 22.124C116.03 22.916 115.682 23.588 115.394 24.14C115.394 24.14 115.454 24.152 115.574 24.176C115.718 24.176 115.85 24.26 115.97 24.428C116.09 24.572 116.138 24.872 116.114 25.328C116.09 25.928 116.222 26.492 116.51 27.02C116.822 27.524 117.206 27.872 117.662 28.064ZM116.294 28.568C116.438 28.568 116.57 28.556 116.69 28.532C116.81 28.484 116.918 28.448 117.014 28.424C116.654 28.16 116.33 27.812 116.042 27.38C115.778 26.924 115.622 26.348 115.574 25.652C115.142 26.108 114.926 26.6 114.926 27.128C114.926 27.512 115.046 27.848 115.286 28.136C115.526 28.424 115.862 28.568 116.294 28.568Z" fill="#ECD9AB"/>
</svg>
