<svg width="11" height="10" viewBox="0 0 11 10" fill="none" xmlns="http://www.w3.org/2000/svg">
<path d="M10 4.35C10.359 4.35 10.65 4.64101 10.65 5C10.65 5.35899 10.359 5.65 10 5.65V4.35ZM0.540381 5.45962C0.28654 5.20578 0.28654 4.79422 0.540381 4.54038L4.67696 0.403806C4.9308 0.149965 5.34235 0.149965 5.59619 0.403806C5.85003 0.657647 5.85003 1.0692 5.59619 1.32304L1.91924 5L5.59619 8.67696C5.85003 8.9308 5.85003 9.34235 5.59619 9.59619C5.34235 9.85003 4.9308 9.85003 4.67696 9.59619L0.540381 5.45962ZM10 5.65H1V4.35H10V5.65Z" fill="#683145"/>
</svg>
